<svg xmlns="http://www.w3.org/2000/svg" width="1554" height="1290" viewBox="0 0 1554 1290">
  <defs>
    <style>
      .cls-1 {
        font-size: 100px;
        font-family: Poppins;
        font-weight: 700;
      }

      .cls-1, .cls-2 {
        fill: #fff;
      }

      .cls-2 {
        fill-rule: evenodd;
      }
    </style>
  </defs>
  <text id="TRAVELOGUE" class="cls-1" transform="translate(391.282 590.536) rotate(0.101) scale(1.71)">TRAVELOGUE</text>
  <path id="L_cut_copy" data-name="L cut copy" class="cls-2" d="M185.1,592.334c2.174-.734,3.951,1.13,7.627,2.685,2.634,1.114,3.658,1.309,4.023,2.586,0.546,1.909-2.948,4.429-4.594,7.085a5.139,5.139,0,0,1-2.9,2.623c-1.7.48-2.92-.473-5.069-1.488-2.011-.95-6.551-0.827-7.136-2.4-0.561-1.506,2.254-3.185,4.294-6.423C182.9,594.543,183.379,592.913,185.1,592.334Zm63.8-113.729a10.022,10.022,0,0,1,.832,3.606A13.09,13.09,0,0,1,248.5,487.8c-1.716,3.589-24.242,69.91-48.67,105.8-3.08,4.525-13.109,16.028-21.625,24.739-16.593,16.975-27.861,23.718-38.406,22.175-9.855-1.442-19.9-9.448-20.474-17.926-0.94-13.857,23.41-29.36,46.089-31.558,30.668-2.973,47.412,20.433,85.319,38.709,35.918,17.316,84.81,31.709,118.323,11.7,9.345-5.581,18.225-14.089,20.767-11.94,2.107,1.78-1.372,9.827-5.124,15.358a43.256,43.256,0,0,1-16.5,14.217c-11.623,5.929-36.75,13.332-69.4,5.952a173.758,173.758,0,0,1-64.274-29.6c-5.755-4.235-30.829-23.375-53.181-30.736a58.945,58.945,0,0,0-15.074-2.564c-16.932-.562-37.572,6.323-39.258,17.054-0.637,4.06,1.557,8.145,4.264,10.526,4.823,4.243,12.97,4.539,19.626-.279q5.528-4.058,10.681-8.58c1.269-1.114,2.457-2.188,3.623-3.277,1.34-1.253,3.04-2.914,3.905-3.781,3.986-4,21.182-27.808,31.3-49.2,8.4-17.753,16.049-35.645,20.5-52.9,1.037-4.024,2.215-8.973,2.563-11.377,0.749-5.176,2.876-19.536,2.851-23.038-0.009-1.276-.094-5.662,2.324-6.989,1.69-.928,3.835.051,4.993,0.555C241.315,474.18,246.783,473.954,248.894,478.605ZM194.526,615.912c1.338,5.2,12.495,8.64,18.585,4.438,7.63-5.264,5.162-21.045,0-23.023-2.309-.884-6.8,1.923-13.037,8.6C195.815,610.486,194.134,614.391,194.526,615.912Zm-0.095.174,81.636,55.356c5.076,5.376,18.42,2.274,24.976-5.045a32.972,32.972,0,0,0,3.329-5.27c3.915-6.143,14.195-11.438,14.147-17.753a9.368,9.368,0,0,0-3.552-6.873c-8.13-6.658-28.891.717-36.96,14.83C274.982,656.622,271.547,666.656,276.067,671.442Z"/>
  <path id="T_body_copy_2" data-name="T body copy 2" class="cls-2" d="M136.742,447.268c0.067-.45,6.034-0.4,16.356,1.147,22.653,3.395,50.018,14.737,59.4,16.93,2.224,0.52,3.78,1.311,6.026,1.721,2.5,0.457,5.6.74,6.313,2.583a7.446,7.446,0,0,1,0,2.582c-0.027.455,0,1.24,0,1.435a71.626,71.626,0,0,1-.861,10.043c-0.95,6.335-2.233,14-3.157,18.077q-1.926,8.5-4.359,16.43c-1.453,4.76-4.161,12.189-6.544,18.577-2.056,5.509-4.283,11.193-6.313,15.782-1.329,3-2.744,5.58-4.017,8.608-4.915,11.683-13.217,25.551-15.5,28.407a2.907,2.907,0,0,1-1.148.861,3.482,3.482,0,0,1-2.295,0c-0.267-.078-2.961-0.546-4.591-0.861-2.069-.4-3.373-0.405-3.443-0.861-0.087-.555,2.707-1.77,3.443-2.3a18.908,18.908,0,0,0,4.017-4.592c5.772-8.908,12.674-32.984,15.782-43.9,0.815-2.865,1.915-6.051,2.869-9.182,6.469-21.242,8.9-34.025,2.869-45.624a31.362,31.362,0,0,0-6.025-8.321c-5.972-5.711-13.142-10.629-16.643-12.339C163.9,455.137,136.6,448.22,136.742,447.268Z"/>
  <path id="T_head_copy_2" data-name="T head copy 2" class="cls-2" d="M333.359,460.051c1.686-2.832,3.581-10.889,2.023-20.811-1.425-9.079-5.5-20.239-8.96-19.944-2.712.232-3.635,9.5-5.781,13.3-13.737,24.333-78.914,14.468-116.482,6.07-32.442-7.252-51.943-15.074-79.775-10.694-50.8,7.994-83.37,46.9-81.509,49.425s38.829-32.316,92.2-32.661c16.823-.109,37.841,5.631,62.143,13.585,15.517,5.078,63.679,18.757,106.366,15.03C318.107,472.079,328.481,468.243,333.359,460.051Z"/>
  <path id="Shape_1_copy" data-name="Shape 1 copy" class="cls-2" d="M364.843,569.866c-5.756-11.357-24.875-10.967-54.091-12.483-11.2-.581-22.54-3.115-32.455-1.942-30.248,3.581-56.048,27.605-94.035,70.735-11.388,12.931-26.716,31.309-21.358,40.5,2.025,3.475,7.787,4.255,16.365,6.38,6.878,1.7,12.821,3.829,19.695,5.548,5.208,1.3,11.674,3.093,15.257,3.884,55.5,12.254,123.746-44.04,146.461-87.378C365.994,584.974,368.187,576.463,364.843,569.866ZM242.237,643.929c-1.483-1.809-19.059,8.2-29.4,12.205-3.731,1.446-9.568,3.494-13.87,5.27-2.634,1.087-5.205,2.113-7.767,3.051-1.648.6-4.218,1.482-6.38,2.219-2.73.931-5.809,1.933-7.767,2.774a67.977,67.977,0,0,0-11.095,6.38c-3.156,2.282-9.553,6.441-14.7,9.709a134.5,134.5,0,0,1-22.746,11.928c-3.188,1.214-6.618,2.3-10.263,3.328-17.144,4.817-28.329,5.858-28.571,8.6-0.245,2.773,11.205,6.661,22.191,8.045a72.9,72.9,0,0,0,22.468-.833c8.191-1.489,14.678-4.254,23.024-7.212,3.322-1.177,6.611-2.138,9.708-3.328a146.2,146.2,0,0,0,39.39-23.024C225.858,667.56,244.735,646.974,242.237,643.929ZM310.821,549.7c4.231-.039,9.006,2.639,9.917,6.3,0.989,3.974-2.819,8.052-6.657,11.651-7.228,6.776-17.236,13.769-21.082,15.811-15.3,8.12-34.361,14.8-35.506,12.205-0.68-1.542,13.931-9.535,18.863-14.147,6.374-5.96,13.638-12.728,16.643-16.366C299.182,557.665,303.645,549.765,310.821,549.7Z"/>
  <path id="Shape_2_copy" data-name="Shape 2 copy" class="cls-2" d="M242.792,643.929c-0.454-.148-1.838,4.264-3.329,6.934-1.85,3.314-4.408,6.037-7.767,9.431-2.054,2.076-4.627,4.676-6.1,6.1-3.51,3.4-7.636,7.27-10.263,9.431-1.307,1.076-3.008,2.644-3.606,3.052-1.251.852-2.655,1.648-2.5,2.219a1.746,1.746,0,0,0,1.387.554c0.9,0.16,1.59.423,2.5,0.555,0.5,0.073,1.815.367,2.774,0.555,0.935,0.184,1.97.4,2.774,0.555a57.812,57.812,0,0,0,8.876.832,92.555,92.555,0,0,0,14.979-.832,119.415,119.415,0,0,0,30.236-8.877,172.126,172.126,0,0,0,29.126-16.366,206.588,206.588,0,0,0,25.519-20.8,212.542,212.542,0,0,0,23.578-26.629c2.279-3.046,6.961-10.872,10.541-17.2a45.384,45.384,0,0,0,3.884-9.709,26.184,26.184,0,0,0,.832-6.38,28.662,28.662,0,0,0-1.11-5.548c0.145,2.507.521,5.29,0,7.767a28.962,28.962,0,0,1-1.664,5.271c-1.47,3.514-5.5,12.359-15.811,23.3-3.475,3.687-13.574,14.4-16.921,17.2-36.6,30.557-65.858,41.961-79.611,39.112-3.87-.8-6.118-2.484-7.212-3.883C239.563,655.02,243.566,644.181,242.792,643.929Z"/>
  <path id="Trail_copy" data-name="Trail copy" class="cls-2" d="M180.1,677.77c40.45,14.931,85.433,8.025,120.664-16.366-23.166,26.212-52.626,44.515-85.713,48.266C142.5,717.9,68.407,654.593,56.109,576.523,43.045,493.6,102.962,414.583,175.941,397.607c37.828-8.8,75.489.455,103.743,15.256,56.685,29.7,77.1,84.757,76.005,85.436-1.2.745-29.232-63.8-92.648-85.99-23.829-8.338-69.888-16.813-112.065,9.431C100.953,452.865,92.682,512.7,91.892,537.411a157.957,157.957,0,0,0,14.979,71.567C121.315,640.592,147.333,665.674,180.1,677.77Zm62.135-33.841c-1.483-1.809-19.059,8.2-29.4,12.205-3.731,1.446-9.568,3.494-13.87,5.27-2.634,1.087-5.205,2.113-7.767,3.051-1.648.6-4.218,1.482-6.38,2.219-2.73.931-5.809,1.933-7.767,2.774a67.977,67.977,0,0,0-11.095,6.38c-3.156,2.282-9.553,6.441-14.7,9.709a134.5,134.5,0,0,1-22.746,11.928c-3.188,1.214-6.618,2.3-10.263,3.328-17.144,4.817-28.329,5.858-28.571,8.6-0.245,2.773,11.205,6.661,22.191,8.045a72.9,72.9,0,0,0,22.468-.833c8.191-1.489,14.678-4.254,23.024-7.212,3.322-1.177,6.611-2.138,9.708-3.328a146.2,146.2,0,0,0,39.39-23.024C225.858,667.56,244.735,646.974,242.237,643.929ZM307.423,440.88c0.219-.56,4-1.745,4.993-2.219,3.05-1.454,2.665-3.455,4.716-3.607,2.969-.219,7.052,10.221,8.876,12.483,4.354,5.4,10.3,7.148,9.986,11.1-0.184,2.345-2.52,5.924-4.438,6.1-2.736.254-4.984-5.414-9.154-10.541C317.787,448.52,306.578,443.044,307.423,440.88Zm-163.659,3.606c-0.493,2.684-9.527,3.115-13.315,3.328-4.64.262-14.682,1.673-21.359,2.774-16.63,2.742-31.482,11.62-32.455,9.986C75.75,459.087,88.095,452.6,95.5,442.821a57.734,57.734,0,0,1,10.263-10.54,42.881,42.881,0,0,1,4.716-3.052c6.267-3.473,12.375-4.661,19.695-5.27,8.642-.72,17.89-1.139,18.307.832,0.131,0.617-.64,1.294-1.941,2.219-2.2,1.564-10.993,5.319-11.373,7.767C134.6,438.381,144.292,441.61,143.764,444.486Z"/>
  <path id="Plane_wing_copy_2" data-name="Plane wing copy 2" class="cls-2" d="M236.3,649.3c-1.172-1.725-10.654,3.835-27.8,10.567-8.947,3.512-16.872,5.6-25.622,9.579-11,5-20.666,11.381-31.9,18.031-11.518,6.818-23.131,13.171-31.068,15.533-12.158,3.62-29.936,3.708-30.235,6.38-0.289,2.585,11.209,6.661,22.191,8.045a72.018,72.018,0,0,0,22.468-.833,92.312,92.312,0,0,0,23.024-7.766,223.781,223.781,0,0,0,21.081-11.1,279.98,279.98,0,0,0,33.879-24.294C222.42,665.069,237.953,651.733,236.3,649.3Z"/>
  <path id="Shape_3_copy" data-name="Shape 3 copy" class="cls-2" d="M89.95,709.947c-0.145.278,1.454,1.423,2.774,2.219a22.1,22.1,0,0,0,5.548,2.219c2.547,0.622,4.644,1.413,7.212,1.942a72.814,72.814,0,0,0,13.037,1.387,82.3,82.3,0,0,0,16.089-1.11,87.542,87.542,0,0,0,20.527-6.657,161.424,161.424,0,0,0,17.2-8.876c10.332-6.155,20.487-12.7,28.571-18.585,9.95-7.244,17.794-14.511,27.184-22.469,0.738-.626,2.712-2.6,4.161-4.161,2.481-2.674,4.456-5.2,3.883-6.38a0.441,0.441,0,0,0-.277-0.277c-0.546-.113-1.184,1.632-2.219,3.329a29.173,29.173,0,0,1-3.329,3.883,48.73,48.73,0,0,1-5.548,4.716c-1.532,1.107-5.088,4.092-7.767,6.38-2.612,2.231-4.865,4.44-7.489,6.657-3.373,2.85-7.629,5.872-11.928,8.876-3.374,2.359-7.886,5.544-9.986,6.935-5.237,3.47-10.441,6.666-15.811,9.709-9.434,5.345-19.3,10.023-26.075,12.205a88.575,88.575,0,0,1-11.927,3.051c-11.127,1.87-25.318,1.792-38-3.051C93.325,710.953,90.143,709.576,89.95,709.947Z"/>
</svg>
