<svg xmlns="http://www.w3.org/2000/svg" width="1554" height="1290" viewBox="0 0 1554 1290">
  <defs>
    <style>
      .cls-1 {
        fill: #fff;
        fill-rule: evenodd;
      }
    </style>
  </defs>
  <path id="L_cut" data-name="L cut" class="cls-1" d="M681,810c7.838-2.648,14.246,4.073,27.5,9.679C717.993,823.7,721.684,824.4,723,829c1.968,6.885-10.629,15.968-16.563,25.542-2.34,3.776-5.081,7.946-10.437,9.458-6.125,1.729-10.527-1.706-18.275-5.365-7.249-3.423-23.618-2.983-25.725-8.635-2.024-5.43,8.126-11.482,15.48-23.156C673.074,817.965,674.817,812.089,681,810ZM911,400a36.2,36.2,0,0,1,3,13c0.441,9.035-3.439,18.138-4.406,20.159-6.188,12.941-87.4,252.03-175.459,381.4-11.1,16.313-47.259,57.783-77.957,89.188-59.819,61.194-100.44,85.5-138.455,79.94-35.531-5.2-71.735-34.062-73.81-64.622-3.391-49.959,84.393-105.846,166.151-113.771,110.559-10.718,170.923,73.661,307.581,139.547C1047.13,1007.27,1223.39,1059.16,1344.2,987.01c33.69-20.117,65.7-50.792,74.87-43.044,7.59,6.417-4.95,35.426-18.47,55.366-15.84,23.348-36.81,39.678-59.49,51.248-41.91,21.38-132.49,48.07-250.21,21.46-83.19-18.8-162.632-55.88-231.71-106.708-20.746-15.266-111.139-84.267-191.718-110.8-11.324-3.73-32.648-8.525-54.344-9.245-61.039-2.028-135.449,22.8-141.525,61.482-2.3,14.633,5.612,29.361,15.37,37.945,17.387,15.3,46.76,16.365,70.753-1q19.929-14.626,38.506-30.931c4.577-4.016,8.857-7.888,13.061-11.816,4.831-4.515,10.96-10.5,14.076-13.631,14.373-14.428,76.364-100.249,112.848-177.362,30.281-64,57.855-128.5,73.887-190.7,3.739-14.508,7.987-32.349,9.241-41.014,2.7-18.662,10.369-70.428,10.279-83.055-0.033-4.6-.338-20.41,8.376-25.195,6.092-3.346,13.826.182,18,2C883.675,384.05,903.389,383.235,911,400ZM715,895c4.825,18.749,45.044,31.148,67,16,27.506-18.977,18.609-75.869,0-83-8.323-3.189-24.522,6.933-47,31C719.646,875.439,713.589,889.517,715,895Zm-0.343.625,294.3,199.565c18.3,19.38,66.41,8.19,90.04-18.19,5.54-6.19,10.54-16.71,12-19,14.11-22.14,51.18-41.23,51-64-0.1-12.591-8.67-21.39-12.81-24.778-29.3-24-104.15,2.586-133.24,53.468C1005.05,1041.76,992.666,1077.93,1008.96,1095.19Z"/>
  <path id="T_body" data-name="T body" class="cls-1" d="M506.687,287.029c0.241-1.619,21.754-1.437,58.962,4.138C647.317,303.4,745.966,344.294,779.776,352.2c8.016,1.874,13.625,4.728,21.724,6.207,9.015,1.647,20.18,2.665,22.757,9.31,0.843,2.173.226,5.42,0,9.31-0.095,1.637,0,4.467,0,5.172a257.822,257.822,0,0,1-3.1,36.2c-3.423,22.838-8.051,50.488-11.379,65.169q-6.946,30.642-15.718,59.23c-5.236,17.159-15,43.943-23.59,66.97-7.412,19.859-15.44,40.351-22.758,56.894-4.79,10.829-9.891,20.119-14.482,31.033-17.718,42.12-47.647,92.113-55.859,102.409a10.463,10.463,0,0,1-4.138,3.1,12.544,12.544,0,0,1-8.275,0c-0.963-.281-10.676-1.968-16.551-3.1-7.457-1.441-12.159-1.46-12.413-3.1-0.311-2,9.761-6.38,12.413-8.275,3.6-2.573,9.539-8.922,14.482-16.551,20.807-32.116,45.69-118.91,56.893-158.268,2.94-10.326,6.906-21.812,10.345-33.1,23.322-76.578,32.094-122.658,10.344-164.474-4.6-8.836-11.373-20.1-21.723-30-21.53-20.586-47.375-38.316-60-44.48C604.576,315.4,506.175,290.462,506.687,287.029Z"/>
  <path id="T_head" data-name="T head" class="cls-1" d="M1215.5,333.113c6.08-10.209,12.91-39.254,7.29-75.024-5.14-32.732-19.82-72.962-32.3-71.9-9.78.835-13.1,34.233-20.84,47.932-49.52,87.721-284.49,52.156-419.923,21.882-116.953-26.143-187.254-54.344-287.591-38.554-183.145,28.822-300.554,169.07-293.843,178.182,6.674,9.062,139.98-116.5,332.4-117.746,60.649-.393,136.418,20.3,224.029,48.974,55.941,18.309,229.565,67.62,383.451,54.184C1160.51,376.475,1197.92,362.644,1215.5,333.113Z"/>
  <path class="cls-1" d="M1329,729c-20.75-40.942-89.67-39.536-195-45-40.38-2.1-81.26-11.232-117-7-109.045,12.91-202.058,99.515-339,255-41.057,46.617-96.314,112.87-77,146,7.3,12.53,28.075,15.34,59,23,24.795,6.14,46.219,13.8,71,20,18.774,4.7,42.084,11.15,55,14,200.064,44.18,446.11-158.766,528-315C1333.15,783.467,1341.05,752.784,1329,729ZM887,996c-5.346-6.519-68.707,29.55-106,44-13.449,5.21-34.492,12.6-50,19-9.494,3.92-18.763,7.62-28,11-5.94,2.17-15.208,5.34-23,8-9.842,3.36-20.944,6.97-28,10-16.11,6.92-33.721,18.46-40,23-11.378,8.22-34.438,23.22-53,35-29.4,18.66-58.347,33.99-82,43-11.493,4.38-23.86,8.31-37,12-61.806,17.37-102.128,21.12-103,31-0.882,10,40.4,24.01,80,29,25.452,3.21,51.816,2.31,81-3,29.529-5.37,52.913-15.34,83-26,11.976-4.24,23.835-7.71,35-12,52.549-20.2,97.8-47.74,142-83C827.954,1081.19,896,1006.98,887,996Zm247.25-339.7c15.25-.143,32.47,9.512,35.75,22.7,3.57,14.325-10.16,29.026-24,42-26.06,24.43-62.13,49.639-76,57-55.15,29.274-123.873,53.351-128,44-2.453-5.559,50.22-34.375,68-51,22.98-21.486,49.17-45.886,60-59C1092.29,685.017,1108.38,656.538,1134.25,656.3Z"/>
  <path class="cls-1" d="M889,996c-1.637-.533-6.626,15.38-12,25-6.67,11.95-15.893,21.76-28,34-7.4,7.48-16.682,16.85-22,22-12.654,12.24-27.529,26.21-37,34-4.711,3.88-10.844,9.53-13,11-4.509,3.07-9.57,5.94-9,8,0.341,1.23,2.521,1.56,5,2,3.254,0.57,5.731,1.52,9,2,1.8,0.26,6.545,1.32,10,2,3.372,0.66,7.1,1.46,10,2a208.492,208.492,0,0,0,32,3,333.166,333.166,0,0,0,54-3c36.734-5.17,73.866-16.84,109-32,33.71-14.54,68.09-33.72,105-59a744.56,744.56,0,0,0,92-75,766.541,766.541,0,0,0,85-96c8.22-10.982,25.09-39.193,38-62,3.01-5.313,10.44-20.7,14-35a94.309,94.309,0,0,0,3-23c0.01-6.4-2.67-13.752-4-20,0.52,9.037,1.88,19.069,0,28a103.742,103.742,0,0,1-6,19c-5.3,12.669-19.82,44.556-57,84-12.53,13.29-48.93,51.928-61,62-131.96,110.16-237.422,151.27-287,141-13.954-2.89-22.058-8.95-26-14C877.361,1035.98,891.793,996.909,889,996Z"/>
  <path id="Trail" class="cls-1" d="M663,1118c145.824,53.83,307.99,28.93,435-59-83.51,94.5-189.718,160.48-309,174-261.575,29.65-528.663-198.55-573-480C168.906,454.053,384.907,169.2,648,108c136.371-31.722,272.143,1.64,374,55,204.35,107.054,277.94,305.55,274,308-4.32,2.686-105.38-230-334-310-85.9-30.058-251.95-60.609-404,34C377.666,307.208,347.847,522.928,345,612c-2.819,88.2,15.927,175.681,54,258C451.072,983.97,544.867,1074.39,663,1118ZM887,996c-5.346-6.519-68.707,29.55-106,44-13.449,5.21-34.492,12.6-50,19-9.494,3.92-18.763,7.62-28,11-5.94,2.17-15.208,5.34-23,8-9.842,3.36-20.944,6.97-28,10-16.11,6.92-33.721,18.46-40,23-11.378,8.22-34.438,23.22-53,35-29.4,18.66-58.347,33.99-82,43-11.493,4.38-23.86,8.31-37,12-61.806,17.37-102.128,21.12-103,31-0.882,10,40.4,24.01,80,29,25.452,3.21,51.816,2.31,81-3,29.529-5.37,52.913-15.34,83-26,11.976-4.24,23.835-7.71,35-12,52.549-20.2,97.8-47.74,142-83C827.954,1081.19,896,1006.98,887,996Zm235-732c0.79-2.017,14.41-6.289,18-8,10.99-5.242,9.61-12.452,17-13,10.7-.793,25.42,36.846,32,45,15.7,19.459,37.12,25.769,36,40-0.66,8.455-9.09,21.359-16,22-9.87.914-17.97-19.517-33-38C1159.36,291.544,1118.95,271.8,1122,264ZM532,277c-1.777,9.676-34.344,11.23-48,12-16.729.943-52.928,6.032-77,10-59.953,9.884-113.493,41.888-117,36-3.193-5.36,41.311-28.747,68-64,5.063-6.687,20.216-25.565,37-38a154.154,154.154,0,0,1,17-11c22.593-12.521,44.613-16.8,71-19,31.158-2.594,64.5-4.1,66,3,0.471,2.223-2.307,4.663-7,8-7.926,5.636-39.627,19.175-41,28C498.979,254.991,533.9,266.634,532,277Z"/>
  <path id="Plane_wing" data-name="Plane wing" class="cls-1" d="M865.6,1015.37c-4.226-6.22-38.411,13.83-100.229,38.1-32.253,12.66-60.823,20.2-92.37,34.53-39.673,18.02-74.5,41.03-115,65-41.524,24.58-83.387,47.48-112,56-43.829,13.05-107.921,13.37-109,23-1.043,9.32,40.41,24.01,80,29,25.737,3.24,52.417,2.35,81-3,30.561-5.72,55.256-15.09,83-28a806.673,806.673,0,0,0,76-40c41.539-25.14,81.667-54.02,122.134-87.58C815.561,1072.21,871.556,1024.14,865.6,1015.37Z"/>
  <path class="cls-1" d="M338,1234c-0.521,1,5.243,5.13,10,8a79.391,79.391,0,0,0,20,8c9.184,2.24,16.741,5.09,26,7a262.145,262.145,0,0,0,47,5,296.863,296.863,0,0,0,58-4c22.793-3.97,46.6-11.82,74-24a581.44,581.44,0,0,0,62-32c37.249-22.19,73.857-45.78,103-67,35.872-26.11,64.15-52.31,98-81,2.661-2.26,9.775-9.37,15-15,8.946-9.64,16.063-18.73,14-23a1.587,1.587,0,0,0-1-1c-1.968-.41-4.267,5.88-8,12-1.939,3.18-7.079,8.97-12,14a175.563,175.563,0,0,1-20,17c-5.523,3.99-18.342,14.75-28,23-9.418,8.04-17.54,16.01-27,24-12.159,10.27-27.5,21.17-43,32-12.164,8.5-28.432,19.98-36,25-18.879,12.51-37.64,24.03-57,35-34.011,19.27-69.565,36.13-94,44-15.383,4.95-30.415,8.89-43,11-40.112,6.74-91.272,6.46-137-11C350.168,1237.63,338.7,1232.66,338,1234Z"/>
</svg>
