<?xml version="1.0" encoding="UTF-8"?>
<svg id="Layer_1" xmlns="http://www.w3.org/2000/svg" version="1.1" viewBox="0 0 1554 1290">
  <!-- Generator: Adobe Illustrator 29.7.1, SVG Export Plug-In . SVG Version: 2.1.1 Build 8)  -->
  <defs>
    <style>
      .st0 {
        fill: #0b1f33;
      }
    </style>
  </defs>
  <path class="st0" d="M1077.48,645.61c-13.78,18.55-28.16,36.62-44.47,53.02-13.42,13.49-30.44,29.96-45.05,41.95-17.87,14.65-43.56,26.57-59.48,41.52-2.43,2.28-7.16,6.03-1.26,7.23,22.5,4.55,111-36.94,133.18-50.3,23.42-14.11,82.01-57.2,91.14-81.86.67-1.8.95-3.6.99-5.51,23.44.88,47.11,1.48,70.45,3.97,40.88,4.36,95.94,13.81,94.55,66.53-1.21,45.85-51.22,115.8-80.07,150.93-103.17,125.66-299.78,266.04-471.16,227.21-2.67-.6-16.77-3.37-16.79-5.19,31.62-26.62,63.18-54.33,90.49-85.49,6.56-7.48,16.88-18.99,21.68-27.32,1.37-2.39,7.99-17.59,7.86-19.18-.4-4.93-10.04-.71-12.82.22-27.71,9.2-56.75,27.17-84.26,38.74-43.01,18.09-87.81,31.9-131.22,48.78-6.12,2.38-18.89,10.05-24.11,9.68-16.81-1.17-36.49-11.88-37.67-30.39-2.37-37.08,51.76-98.92,75.52-126.55,29.93-34.82,62.46-70.63,94.49-103.51,63.19-64.88,147.07-141.79,239.82-156.18,29.91-4.64,58.36-.96,88.21,1.72Z"/>
  <path class="st0" d="M432.48,258.61c-48.89,66.19-79.7,143.88-94.68,224.8-22.3,120.39-8.63,236.62,41.51,347.86,46.44,103.05,126.22,187.42,228.17,236.83-36.85,24.29-72.93,50.23-112.5,70.12-159.1-88.07-278.09-257.15-299.38-439.25-17.18-146.99,27.98-294.84,116.62-411.4,38.16-16.23,78.97-25.02,120.26-28.96Z"/>
  <path class="st0" d="M150.48,361.59c-2.54-2.5,9.88-18.67,12.04-21.45,63.71-82.15,195.86-148.31,298.47-159.53,111.3-12.17,238.36,37.43,349.3,56.67,82.39,14.29,238.98,35.56,312.11-8.27,35.77-21.44,28.35-36.31,42.9-68.1,5.49-11.98,10.08-11.96,18.15-1.8,22.6,28.46,32.4,109.89,13.44,141.4-23.65,39.32-90.25,46.54-131.88,48.12-94.32,3.57-193.89-12.03-284.96-35.12-80.86-20.5-159.31-53.6-242.24-65.76-121.15-17.76-234.31,23.34-336.25,84.42-13.28,7.96-26.94,18.54-40.41,25.59-3.32,1.74-6.76,4.1-10.67,3.82Z"/>
  <path class="st0" d="M831.53,335.05c-12.4-3.2-17.91,4.82-19.04,16.06-8.25,82.04-17.63,140.26-47.26,217.74-27.48,71.82-61.42,142.3-103.27,206.75-.47.72-1.07.93-1.9.96-3.55.12-16.83-4.06-22.22-4.82-50.15-7.06-107.55,8.29-150.67,34.05-46.57,27.81-91.04,78-33.61,123.22,57.98,45.65,113.43,8.16,158.44-33.39,22.31-20.58,42.62-43.54,63.46-65.56l28.05,12.1c8.52-11.6,17.5-23.18,28.95-32.06-2.37-4.04-25.09-13.31-25.94-14.55-.43-.63.03-2.16.46-2.95,1.85-3.47,8.17-10.03,10.91-14.09,29.23-43.33,54.23-92.23,76.45-139.56,38.97-83.02,72.35-169.26,102.12-255.87,2.87-37.58-40.72-34.95-64.93-48.03ZM551.37,900.99c-26.47,19.95-62.69,34.39-87.87,3.08-26.45-32.88,3.64-61.12,33.3-74.65,41.7-19.02,93.01-23.01,137.68-13.81-21.34,33.4-51.57,61.62-83.11,85.38Z"/>
  <path class="st0" d="M848.35,980.73c3.03,4.76-12.85,22.1-16.36,25.88-18.86,20.34-47.26,42.99-69.04,60.96-82.77,68.29-212.26,156.27-321.98,161.02-31.05,1.34-77.51-5.01-105.85-18.13-8.82-4.09-25.22-12.56-7.29-18,23.9-7.25,56.14-7.67,81.84-13.16,81.23-17.36,160.97-85.51,236.45-121.55,38.13-18.21,80.01-29.72,119.33-45.67,22.29-9.05,45.4-21.48,67.79-29.21,2.78-.96,13.3-4.97,15.12-2.12Z"/>
  <path class="st0" d="M618.48,763.59c-2.03-2.28,11.28-8.32,12.93-9.56,22.66-16.95,42.43-81,51.33-108.67,12.28-38.15,24.28-78.2,35.23-116.77,22.2-78.16,34.78-136.36-35.03-192.97-23.77-19.28-44.82-30.57-73.22-41.78-39.34-15.52-80.34-26.41-120.25-40.26-.36-.48.92-1.55,1.71-1.77,4.69-1.3,19.04.33,24.78.79,91.37,7.42,174.15,46.01,261.29,69.71,8.32,2.26,28.61,2.9,30.03,13.05-5.12,118.8-46.87,236.45-97.95,342.59-11.95,24.83-25.48,51.47-40.44,74.56-4.27,6.58-9.13,17.28-17.87,17.11-9.39-.18-22.54-5.86-32.55-6.03Z"/>
  <path class="st0" d="M1078.48,1026.61c-72.28,81.79-168.82,147.52-277.81,167.68-65.74,12.16-131.84,7.5-196.19-9.69-.45-2.61.37-1.55,1.43-2.09,7.23-3.68,16.35-6.49,23.94-10.05,37.62-17.65,72.66-40.24,105.38-65.71,102.12,15.4,207.45-4.51,297.94-52.98l45.33-27.16Z"/>
  <path class="st0" d="M422.48,175.59c75.83-60,168.5-101.94,265.62-111.87,150.74-15.42,318.82,42.04,430.39,143.37,1.63,1.48,10.07,8.98,9.92,9.88-.51,2.92-14.74,9.09-16.9,8.17-54.86-48.15-119.78-85.29-190.03-106.03-118.33-34.95-248.18-30.98-358.02,27.98-6.89,3.7-30.49,19.99-34.94,21.09-2.57.64-8.26-1.49-11.5-1.61-31.25-1.13-64.14,2.16-94.54,9.03Z"/>
  <path class="st0" d="M1402.24,909.84c5.26,5.25-3.72,27.22-6.59,33.44-46.3,100.48-196.17,115.91-292.51,100.16-2.85-.47-18.32-2.71-18.67-4.36,10.54-22.93,29.4-37.86,47.7-54.27l36.76,2.83c60.91,2.5,117.8-8.88,169.07-42.01,11.84-7.65,45.87-35.46,57.05-36.99,1.87-.26,5.86-.13,7.18,1.2Z"/>
  <path class="st0" d="M1206.46,302.6c17.84,26.01,35.67,52.23,50.19,80.32,8.69,16.8,17.67,35.26,21.82,53.67l-26.57-43.91c-16.96-27.25-35.18-53.72-55.33-78.73,2.82-2.86,4.88-7.48,7.46-10.32.82-.9,1.02-1.35,2.44-1.03Z"/>
</svg>